<svg width="121" height="104" fill="none" xmlns="http://www.w3.org/2000/svg"><path d="M113.557 58.749c-1.71 4.096-5.944 5.056-9.785 3.862-.067-.165-.133-.332-.214-.493-.48-.954-2.244-.65-1.94.529.789 3.054.529 6.337-2.252 8.33-3.042 2.179-7.102.774-9.258-1.907-.231-.286-.515-.355-.775-.307a.557.557 0 00-.499.22c-1.002 1.405-1.741 2.706-3.554 3.156-1.958.487-3.824-.435-4.78-2.18-2.219-4.038.983-7.63 4.929-8.31.776-.133.792-1.27-.005-1.39l-.174-.012c-3.343-2.252-8.179-5.169-4.84-9.749 3.072-4.215 8.232-2.409 11.557.353.785.652 1.99-.546 1.261-1.303-.128-.136-.271-.26-.409-.39.424.102.952-.096.967-.607.142-4.576 3.757-8.772 8.628-8.03 4.794.731 6.704 5.796 4.28 9.608a.799.799 0 00-.568.828c-.555 1.058 1.023 2.093 1.897 1.115l.055-.07c1.212.171 2.444.316 3.567.792 2.506 1.062 2.877 3.64 1.912 5.955zm-52.55-15.215c-7.47 3.025-11.674 11.24-9.572 18.975a12.285 12.285 0 00-5.619.866c-1.967-10.171.614-20.577 10.602-25.438 9.648-4.697 21.047-.824 26.491 8.257-1.623.406-3.119 1.306-4.28 2.842-2.934-6.306-11.239-8.087-17.623-5.502zM56.953 68.25c3.365 4.74-.318 10.388-5.566 10.08a5.563 5.563 0 00-.751-.567c-.822-.51-2.045.494-1.273 1.314 2.097 2.228 3.074 5.83.605 8.248-2.643 2.588-7.117 1.208-8.979-1.612-.121-.183-.309-.183-.45-.091-.379-.2-.877-.128-1.067.381-1.584 4.215-3.073 8.984-8.68 8.876-7.613-.148-3.629-9.363-1.99-13.189.551-.574-.119-1.447-.867-1.22-2.398.73-8.309 3.259-8.728-1.347-.365-3.996 4.225-5.088 7.368-5.052.15.095.296.197.458.278.797.398 1.663-.75 1.049-1.407-3.113-3.324-2.1-7.015 2.227-8.74 3.963-1.58 9.142-.485 9.518 4.516.066.876 1.398.84 1.51-.002.014-.106.02-.207.029-.31.276.117.6.112.883-.125 4.313-3.603 10.85-5.46 14.704-.03zM32.867 37.867c3.998-8.42 11.156-14.853 19.848-18.134 17.819-6.724 37.629 1.893 45.746 18.969-2.746 1.014-4.81 3.448-5.695 6.42C88.72 30.886 73.232 21.967 58.769 25.64c-13.474 3.42-30.656 21.587-21.114 36.107.557.848 1.892.006 1.506-.895-6.227-14.508 7.54-30.182 21.317-33.044C74.07 24.984 87.932 34.147 90.9 47.69c-1.621-.998-3.48-1.624-5.32-1.734a1.195 1.195 0 00-.159-.459c-5.955-10.221-18.325-14.913-29.295-9.956-10.26 4.637-16.57 17.557-11.503 28.235l.08.109a11.689 11.689 0 00-3.396 2.673c-.847-4.86-7.178-6.17-11.593-4.53-.453-8.524-.616-16.222 3.152-24.16zm76.485 12.15c2-4.432-.455-10.01-5.402-11.441a9.317 9.317 0 00-2.83-.378 1.515 1.515 0 00-.096-.265c-8.642-18.224-29.52-27.384-48.603-20.641-9.163 3.237-16.792 9.87-21.237 18.522-3.98 7.748-6.17 18.382-2.916 26.77l.053.085c-2.323 1.245-4.255 3.148-4.396 5.943-.076 1.493.35 2.975 1.21 4.13-4.1.056-8.666 1.983-7.88 6.93.667 4.19 4.918 4.725 8.395 3.652-2.835 4.6-2.625 12.253 3.166 13.737 5.238 1.344 12.348-3.781 12.333-9.419 2.166 3.124 6.957 4 9.995 1.404 2.378-2.033 3.02-5.9 1.699-8.74 5.449.14 9.467-6.837 7.054-11.998C58.49 65.3 56 63.499 53.203 62.8c-.976-6.147.533-12.302 6.004-15.92 5.954-3.936 16.034-2.944 17.883 5.113.018.078.044.15.073.218-.661 3.524 1.927 6.604 5.329 8.278-4.174 1.346-6.26 6.949-3.57 10.86 1.481 2.152 4.054 3.22 6.599 2.59 1.511-.373 3.204-1.409 3.963-2.857 2.527 2.875 6.918 3.837 10.37 2.01 3.008-1.59 4.831-5.278 4.401-8.656 4.586 1.788 9.993-.805 11.648-5.617 1.797-5.22-2-8.417-6.551-8.801z" fill="#FEB9CC"/></svg>