<?xml version="1.0" encoding="utf-8"?>
<!-- Generator: Adobe Illustrator 24.0.1, SVG Export Plug-In . SVG Version: 6.00 Build 0)  -->
<svg version="1.1" id="Слой_1" xmlns="http://www.w3.org/2000/svg" xmlns:xlink="http://www.w3.org/1999/xlink" x="0px" y="0px"
	 viewBox="0 0 1366 100" style="enable-background:new 0 0 1366 100;" xml:space="preserve">
<style type="text/css">
	.st0{fill:#fdfcfa;stroke:#fdfcfa;stroke-miterlimit:10;}
</style>
<path class="st0" d="M0,76.6c80.3-8.8,143.3-17.8,187.3-24.5c25.4-3.9,53.8-8.5,94.5-11.7c14.9-1.2,52.2-3.8,111.8-3.1
	c63,0.8,112.4,4.9,148.1,8.2c46.3,4.2,77.2,7.8,258.4,30.6c22.1,2.8,111,14,204.3,20.4c10.4,0.7,40.7,2.8,80.7,2.6
	c36.9-0.2,65.3-0.4,102.1-6.2c23.1-3.6,54.3-8.7,91.9-24.5c37.9-16,55.9-31.8,63.8-39.3c10.7-10.2,18.2-20,23.1-27.1v97H0V76.6z"/>
</svg>
